<svg width="37" height="36" viewBox="0 0 37 36" fill="none" xmlns="http://www.w3.org/2000/svg">
<rect x="0.5" width="36" height="36" rx="8" fill="#433740" fill-opacity="0.2"/>
<g clip-path="url(#clip0_2606_30805)">
<path d="M26.75 17.2493H25.25V15.7493C25.25 15.335 24.9143 14.9993 24.5 14.9993C24.0858 14.9993 23.7501 15.335 23.7501 15.7493V17.2493H22.25C21.8358 17.2493 21.5001 17.585 21.5001 17.9993C21.5001 18.4135 21.8358 18.7492 22.25 18.7492H23.7501V20.2492C23.7501 20.6635 24.0858 20.9992 24.5 20.9992C24.9143 20.9992 25.25 20.6635 25.25 20.2492V18.7492H26.75C27.1643 18.7492 27.5 18.4135 27.5 17.9993C27.5 17.585 27.1643 17.2493 26.75 17.2493Z" fill="#201A1E" fill-opacity="0.75"/>
<path d="M16.25 18C18.7353 18 20.75 15.9853 20.75 13.5C20.75 11.0147 18.7353 9 16.25 9C13.7647 9 11.75 11.0147 11.75 13.5C11.75 15.9853 13.7647 18 16.25 18Z" fill="#201A1E" fill-opacity="0.75"/>
<path d="M16.25 19.4993C12.5238 19.5034 9.50415 22.5231 9.5 26.2493C9.5 26.6635 9.83578 26.9993 10.25 26.9993H22.25C22.6642 26.9993 23 26.6635 23 26.2493C22.9958 22.5231 19.9762 19.5034 16.25 19.4993Z" fill="#201A1E" fill-opacity="0.75"/>
</g>
<defs>
<clipPath id="clip0_2606_30805">
<rect width="18" height="18" fill="white" transform="translate(9.5 9)"/>
</clipPath>
</defs>
</svg>
