<svg width="37" height="36" viewBox="0 0 37 36" fill="none" xmlns="http://www.w3.org/2000/svg">
<rect x="0.25" width="36" height="36" rx="8" fill="#433740" fill-opacity="0.2"/>
<g clip-path="url(#clip0_2606_30791)">
<path d="M23.5 11.25H13C12.0058 11.2512 11.0527 11.6467 10.3497 12.3497C9.64666 13.0527 9.25119 14.0058 9.25 15H27.25C27.2488 14.0058 26.8533 13.0527 26.1503 12.3497C25.4473 11.6467 24.4942 11.2512 23.5 11.25Z" fill="#201A1E"/>
<path d="M9.25 20.9999C9.25119 21.9941 9.64666 22.9472 10.3497 23.6502C11.0527 24.3532 12.0058 24.7487 13 24.7499H23.5C24.4942 24.7487 25.4473 24.3532 26.1503 23.6502C26.8533 22.9472 27.2488 21.9941 27.25 20.9999V16.4999H9.25V20.9999ZM14.5 20.6249C14.5 20.8474 14.434 21.0649 14.3104 21.2499C14.1868 21.4349 14.0111 21.5791 13.8055 21.6642C13.6 21.7494 13.3738 21.7717 13.1555 21.7283C12.9373 21.6848 12.7368 21.5777 12.5795 21.4204C12.4222 21.263 12.315 21.0626 12.2716 20.8443C12.2282 20.6261 12.2505 20.3999 12.3356 20.1944C12.4208 19.9888 12.565 19.8131 12.75 19.6895C12.935 19.5659 13.1525 19.4999 13.375 19.4999C13.6734 19.4999 13.9595 19.6184 14.1705 19.8294C14.3815 20.0404 14.5 20.3265 14.5 20.6249Z" fill="#201A1E"/>
</g>
<defs>
<clipPath id="clip0_2606_30791">
<rect width="18" height="18" fill="white" transform="translate(9.25 9)"/>
</clipPath>
</defs>
</svg>
