<svg width="37" height="36" viewBox="0 0 37 36" fill="none" xmlns="http://www.w3.org/2000/svg">
<rect x="0.75" width="36" height="36" rx="8" fill="#433740" fill-opacity="0.2"/>
<g clip-path="url(#clip0_2606_30818)">
<path d="M24 9H13.5C12.5054 9 11.5516 9.39509 10.8483 10.0983C10.1451 10.8016 9.75 11.7554 9.75 12.75V12.75C9.75 13.3467 9.98705 13.919 10.409 14.341C10.831 14.7629 11.4033 15 12 15H25.5C26.0704 15.007 26.6217 14.7948 27.0404 14.4073C27.459 14.0198 27.713 13.4865 27.75 12.9173C27.7721 12.411 27.6914 11.9056 27.5129 11.4314C27.3344 10.9572 27.0618 10.524 26.7114 10.158C26.361 9.79195 25.9401 9.50066 25.4741 9.30165C25.0081 9.10263 24.5067 9.00003 24 9V9Z" fill="#201A1E"/>
<path d="M26.2499 16.5H11.2499C11.051 16.5 10.8602 16.579 10.7195 16.7197C10.5789 16.8603 10.4999 17.0511 10.4999 17.25V23.25C10.5011 24.2442 10.8965 25.1973 11.5995 25.9003C12.3025 26.6033 13.2557 26.9988 14.2499 27H23.2499C24.2441 26.9988 25.1972 26.6033 25.9002 25.9003C26.6032 25.1973 26.9987 24.2442 26.9999 23.25V17.25C26.9999 17.0511 26.9209 16.8603 26.7802 16.7197C26.6396 16.579 26.4488 16.5 26.2499 16.5ZM20.9999 20.25H16.4999C16.301 20.25 16.1102 20.171 15.9695 20.0303C15.8289 19.8897 15.7499 19.6989 15.7499 19.5C15.7499 19.3011 15.8289 19.1103 15.9695 18.9697C16.1102 18.829 16.301 18.75 16.4999 18.75H20.9999C21.1988 18.75 21.3896 18.829 21.5302 18.9697C21.6709 19.1103 21.7499 19.3011 21.7499 19.5C21.7499 19.6989 21.6709 19.8897 21.5302 20.0303C21.3896 20.171 21.1988 20.25 20.9999 20.25Z" fill="#201A1E"/>
</g>
<defs>
<clipPath id="clip0_2606_30818">
<rect width="18" height="18" fill="white" transform="translate(9.75 9)"/>
</clipPath>
</defs>
</svg>
